<?xml version="1.0" encoding="utf-8"?>
<!-- Generator: Adobe Illustrator 16.0.4, SVG Export Plug-In . SVG Version: 6.00 Build 0)  -->
<!DOCTYPE svg PUBLIC "-//W3C//DTD SVG 1.1//EN" "http://www.w3.org/Graphics/SVG/1.1/DTD/svg11.dtd">
<svg version="1.1" id="Layer_1" xmlns="http://www.w3.org/2000/svg" xmlns:xlink="http://www.w3.org/1999/xlink" x="0px" y="0px"
	 width="140.566px" height="55.129px" viewBox="0 0 140.566 55.129" enable-background="new 0 0 140.566 55.129"
	 xml:space="preserve">
<path fill="#333742" d="M1.75,25.816c-0.967,0-1.75,0.955-1.75,2.13c0,1.176,0.783,2.13,1.75,2.13h81.355v-4.261H1.75z"/>
<path fill-rule="evenodd" clip-rule="evenodd" fill="#373737" d="M140.564,27.569c0.041-1.034-0.668-1.53-1.499-1.962
	c-1.916-0.994-3.979-1.397-6.093-1.43c-4.547-0.069-9.095-0.044-13.643-0.027c-0.624,0.002-1.046-0.173-1.339-0.728
	c-1.808-3.418-3.626-6.833-5.443-10.247c-2.176-4.086-4.337-8.18-6.562-12.239c-0.224-0.409-0.812-0.745-1.293-0.856
	c-0.637-0.147-1.333-0.052-2.004-0.038c-0.548,0.012-0.76,0.319-0.659,0.848c0.051,0.27,0.111,0.538,0.175,0.804
	c1.697,7.085,3.396,14.169,5.089,21.255c0.088,0.369,0.122,0.751,0.194,1.216c-0.477,0.017-0.835,0.031-1.194,0.042
	c-4.602,0.14-9.204,0.288-13.807,0.393c-0.278,0.006-0.669-0.268-0.829-0.524c-0.583-0.927-1.093-1.9-1.625-2.859
	c-0.731-1.32-1.371-2.691-3.331-2.379c-1.067,0.17-1.291,0.279-1.141,1.367c0.209,1.511,0.492,3.012,0.668,4.526
	c0.124,1.065,0.849,2.262-0.722,3.109c1.181,0.39,1.043,1.123,0.918,1.913c-0.295,1.868-0.563,3.741-0.77,5.621
	c-0.042,0.378,0.126,1.009,0.394,1.15c1.147,0.604,2.796-0.035,3.451-1.216c0.738-1.332,1.459-2.675,2.241-3.98
	c0.147-0.245,0.558-0.479,0.843-0.476c4.175,0.062,8.351,0.172,12.525,0.249c0.753,0.014,1.509-0.069,2.392-0.114
	c-0.076,0.544-0.1,0.869-0.17,1.182c-0.496,2.201-1.002,4.399-1.506,6.598c-1.137,4.962-2.277,9.924-3.41,14.887
	c-0.31,1.353-0.212,1.467,1.176,1.471c0.366,0.002,0.732,0.011,1.099-0.007c0.753-0.038,1.294-0.333,1.657-1.068
	c0.971-1.966,2.015-3.896,3.028-5.841c2.816-5.4,5.639-10.797,8.439-16.206c0.346-0.666,0.757-0.985,1.561-0.982
	c4.118,0.016,8.237-0.008,12.356-0.069c2.516-0.037,4.994-0.364,7.277-1.525C139.772,29.038,140.524,28.552,140.564,27.569z"/>
</svg>
