<?xml version="1.0" encoding="utf-8"?>
<!-- Generator: Adobe Illustrator 16.0.4, SVG Export Plug-In . SVG Version: 6.00 Build 0)  -->
<!DOCTYPE svg PUBLIC "-//W3C//DTD SVG 1.1//EN" "http://www.w3.org/Graphics/SVG/1.1/DTD/svg11.dtd">
<svg version="1.1" id="Layer_1" xmlns="http://www.w3.org/2000/svg" xmlns:xlink="http://www.w3.org/1999/xlink" x="0px" y="0px"
	 width="127.99px" height="128.193px" viewBox="0 0 127.99 128.193" enable-background="new 0 0 127.99 128.193"
	 xml:space="preserve">
<path fill-rule="evenodd" clip-rule="evenodd" fill="#373737" d="M119.856,3.989c-0.246,0.084-1.007,0.241-1.665,0.59
	c-9.023,4.777-18.028,9.588-27.046,14.376C63.267,33.761,35.382,48.553,7.512,63.376c-1.688,0.897-3.562,1.7-3.529,4.176
	c0.033,2.455,1.894,3.19,3.596,4.113c7.333,3.972,14.478,8.363,22.062,11.779c7,3.154,11.646,7.87,14.844,14.807
	c3.583,7.771,8.012,15.151,12.086,22.695c1.486,2.751,3.275,3.937,5.085,2.866c1.303-0.771,2.362-2.238,3.105-3.624
	c8.141-15.179,16.197-30.404,24.277-45.615c11.481-21.613,22.965-43.225,34.446-64.836C124.915,7.046,123.31,4.08,119.856,3.989z
	 M43.439,79.303c-1.523,1.53-2.667,1.833-4.619,0.736c-6.797-3.82-13.707-7.44-20.564-11.154c-0.644-0.35-1.22-0.823-2.24-1.521
	c27.38-14.542,54.338-28.859,81.295-43.176c0.153,0.188,0.306,0.376,0.458,0.564c-0.725,0.785-1.424,1.598-2.18,2.353
	C78.2,44.498,60.783,61.865,43.439,79.303z M60.622,112.035c-0.708-1.069-1.171-1.663-1.524-2.315
	c-3.742-6.928-7.387-13.91-11.247-20.771c-1.033-1.835-0.684-2.876,0.675-4.229c15.709-15.638,31.379-31.314,47.042-46.999
	c2.521-2.525,4.952-5.142,7.425-7.715c0.282,0.206,0.564,0.411,0.847,0.616C89.532,57.574,75.224,84.527,60.622,112.035z"/>
</svg>
